<svg width="28" height="27" viewBox="0 0 28 27" fill="none" xmlns="http://www.w3.org/2000/svg">
<path d="M13.75 12.6038C15.4214 12.6038 17.0243 11.9398 18.2061 10.758C19.3879 9.57614 20.0519 7.97324 20.0519 6.30188C20.0519 4.63051 19.3879 3.02761 18.2061 1.84578C17.0243 0.663946 15.4214 0 13.75 0C12.0786 0 10.4757 0.663946 9.2939 1.84578C8.11207 3.02761 7.44812 4.63051 7.44812 6.30188C7.44812 7.97324 8.11207 9.57614 9.2939 10.758C10.4757 11.9398 12.0786 12.6038 13.75 12.6038ZM13.75 15.3725C5.37125 15.3725 0 19.9963 0 22.2475V26.4512H27.5V22.2475C27.5 19.525 22.415 15.3725 13.75 15.3725Z" fill="#4F3DFE"/>
</svg>
