<svg width="30" height="30" viewBox="0 0 30 30" fill="none" xmlns="http://www.w3.org/2000/svg">
<path d="M27.7248 13.3228L29.6172 14.352C29.7339 14.4154 29.8305 14.505 29.8976 14.6123C29.9646 14.7198 30 14.841 30 14.9643C30 15.0877 29.9646 15.2089 29.8976 15.3163C29.8305 15.4236 29.7339 15.5133 29.6172 15.5767L15 23.5286L0.382819 15.5767C0.266084 15.5133 0.169455 15.4236 0.102364 15.3163C0.0352593 15.2089 0 15.0877 0 14.9643C0 14.841 0.0352593 14.7198 0.102364 14.6123C0.169455 14.505 0.266084 14.4154 0.382819 14.352L2.27511 13.3228L15 20.2457L27.7248 13.3228ZM27.7248 20.0316L29.6172 21.0606C29.7339 21.124 29.8305 21.2138 29.8976 21.3211C29.9646 21.4284 30 21.5496 30 21.673C30 21.7964 29.9646 21.9177 29.8976 22.025C29.8305 22.1323 29.7339 22.2219 29.6172 22.2853L15.8107 29.7962C15.566 29.9297 15.2857 30 15 30C14.7144 30 14.4341 29.9297 14.1892 29.7962L0.382819 22.2853C0.266084 22.2219 0.169455 22.1323 0.102364 22.025C0.0352593 21.9177 0 21.7964 0 21.673C0 21.5496 0.0352593 21.4284 0.102364 21.3211C0.169455 21.2138 0.266084 21.124 0.382819 21.0606L2.27511 20.0316L15 26.9543L27.7248 20.0316ZM15.8091 0.203842L29.6172 7.7147C29.7339 7.77806 29.8305 7.86778 29.8976 7.9751C29.9646 8.08242 30 8.20368 30 8.32704C30 8.45041 29.9646 8.57166 29.8976 8.67897C29.8305 8.7863 29.7339 8.87601 29.6172 8.93939L15 16.8913L0.382819 8.93939C0.266084 8.87601 0.169455 8.7863 0.102364 8.67897C0.0352593 8.57166 0 8.45041 0 8.32704C0 8.20368 0.0352593 8.08242 0.102364 7.9751C0.169455 7.86778 0.266084 7.77806 0.382819 7.7147L14.1892 0.203842C14.4341 0.0704594 14.7144 0 15 0C15.2857 0 15.566 0.0704594 15.8107 0.203842H15.8091Z" fill="#4F3DFE"/>
</svg>
