<svg width="37" height="37" viewBox="0 0 37 37" fill="none" xmlns="http://www.w3.org/2000/svg">
<path fill-rule="evenodd" clip-rule="evenodd" d="M25.4375 19.6562H19.6562V25.4375C19.6562 26.0734 19.1394 26.5938 18.5 26.5938C17.8606 26.5938 17.3438 26.0734 17.3438 25.4375V19.6562H11.5625C10.9231 19.6562 10.4062 19.1359 10.4062 18.5C10.4062 17.8641 10.9231 17.3438 11.5625 17.3438H17.3438V11.5625C17.3438 10.9266 17.8606 10.4062 18.5 10.4062C19.1394 10.4062 19.6562 10.9266 19.6562 11.5625V17.3438H25.4375C26.0769 17.3438 26.5938 17.8641 26.5938 18.5C26.5938 19.1359 26.0769 19.6562 25.4375 19.6562ZM18.5 0C8.28222 0 0 8.27875 0 18.5C0 28.7213 8.28222 37 18.5 37C28.7178 37 37 28.7213 37 18.5C37 8.27875 28.7178 0 18.5 0Z" fill="white"/>
</svg>
